<svg width="2273" height="548" viewBox="0 0 2273 548" fill="none" xmlns="http://www.w3.org/2000/svg">
<g clip-path="url(#clip0_1_2)">
<path d="M424.335 128.351L444.881 32.6273H265.885H160.612H20.5457L0 128.351H160.612V539.24H265.885V128.351H424.335Z" fill="#462A3F"/>
<path d="M835.248 372.993C835.248 398.447 828.379 418.697 814.703 433.804C801.027 448.912 782.644 456.466 759.554 456.466C736.464 456.466 717.254 448.912 703.323 433.804C689.393 418.697 682.396 398.447 682.396 372.993V305.136H581.449V376.611C581.449 410.699 588.764 440.66 603.458 466.559C618.088 492.457 638.76 512.516 665.476 526.672C692.128 540.827 723.297 547.873 758.854 547.873C794.411 547.873 825.58 540.764 852.232 526.672C878.884 512.516 899.557 492.457 914.25 466.559C928.881 440.66 936.259 410.699 936.259 376.611V172.912H835.312V372.993H835.248Z" fill="#462A3F"/>
<path d="M1246.16 193.098C1219.26 174.372 1186.75 165.041 1148.84 165.041C1110.93 165.041 1080.71 173.42 1052.6 190.242C1024.48 207.063 1002.6 230.042 986.956 259.305C971.308 288.568 963.547 320.941 963.547 356.425C963.547 394.321 971.626 427.774 987.719 456.846C1003.81 485.856 1026.77 508.327 1056.61 524.133C1086.44 539.938 1120.53 547.873 1159.02 547.873C1190.25 547.873 1218.05 544.001 1242.28 536.384C1266.58 528.703 1286.36 517.912 1301.76 504.01V418.379C1283.95 433.233 1264.35 444.976 1242.98 453.609C1221.61 462.242 1199.6 466.559 1177.02 466.559C1150.56 466.559 1127.85 461.671 1108.89 451.832C1089.87 441.993 1075.5 428.472 1065.64 411.143C1059.66 400.669 1055.53 389.37 1053.17 377.309H1314.1C1319.38 337.953 1316.13 302.089 1304.36 269.715C1292.6 237.342 1273.26 211.76 1246.29 193.098H1246.16ZM1055.65 310.404C1057.37 303.612 1059.6 297.264 1062.27 291.361C1069.97 274.349 1080.65 261.463 1094.33 252.83C1108 244.197 1123.52 239.881 1140.83 239.881C1154.76 239.881 1167.41 242.864 1178.67 248.895C1190 254.925 1198.96 263.304 1205.71 274.095C1212.45 284.886 1216.07 297.011 1216.52 310.468H1055.59L1055.65 310.404Z" fill="#462A3F"/>
<path d="M684.304 172.912H506.39C470.833 172.912 439.665 180.022 413.013 194.114C386.36 208.269 365.688 228.328 350.994 254.227C336.364 280.126 328.985 310.087 328.985 344.174V539.24H429.932V347.792C429.932 322.338 436.802 302.089 450.478 286.981C464.154 271.873 482.537 264.32 505.627 264.32H684.304V172.912Z" fill="#462A3F"/>
<path d="M1461.16 32.4369H1360.15V539.367H1461.16V32.4369Z" fill="#462A3F"/>
<path d="M1575.27 5.77644C1557.46 5.77644 1542.71 11.8703 1530.88 24.1214C1519.11 36.3725 1513.19 50.9088 1513.19 67.6669C1513.19 84.4249 1519.17 98.8977 1531.26 110.895C1543.28 122.892 1557.97 128.923 1575.27 128.923C1592.58 128.923 1607.4 122.892 1619.67 110.895C1631.95 98.8977 1638.06 84.4884 1638.06 67.6669C1638.06 50.8454 1631.95 36.3725 1619.67 24.1214C1607.4 11.8703 1592.64 5.77644 1575.27 5.77644Z" fill="#462A3F"/>
<path d="M1626.48 172.849H1525.47V539.367H1626.48V172.849Z" fill="#462A3F"/>
<path d="M1952.92 172.849H1830.98V161.359C1830.98 136.857 1837.02 118.639 1849.05 106.642C1861.07 94.6447 1875.76 88.6144 1893.06 88.6144C1905.09 88.6144 1915.77 89.9474 1925.19 92.55C1934.54 95.216 1943.82 99.1516 1952.98 104.42V16.5676C1940.01 11.299 1926.65 7.23642 1912.91 4.31646C1899.23 1.45998 1886.58 0 1875.06 0C1831.75 0 1796.76 13.3302 1770.11 39.9907C1743.39 66.6512 1730.03 105.372 1730.03 156.281V172.849H1670.88V256.385H1730.03V539.367H1831.05V256.385H1900.7L1953.05 172.849H1952.92Z" fill="#462A3F"/>
<path d="M2260.85 269.652C2249.08 237.215 2229.68 211.697 2202.78 192.971C2175.81 174.245 2143.37 164.851 2105.39 164.851C2067.42 164.851 2037.2 173.23 2009.09 190.051C1980.97 206.873 1959.03 229.915 1943.44 259.178C1927.79 288.441 1919.97 320.878 1919.97 356.362C1919.97 394.258 1928.05 427.774 1944.14 456.783C1960.24 485.856 1983.2 508.263 2013.03 524.132C2042.86 539.938 2077.02 547.873 2115.5 547.873C2146.8 547.873 2174.53 544.001 2198.83 536.384C2223.13 528.703 2242.98 517.912 2258.37 503.947V418.252C2240.56 433.169 2220.97 444.913 2199.53 453.546C2178.1 462.179 2156.09 466.495 2133.51 466.495C2107.04 466.495 2084.34 461.607 2065.32 451.768C2046.3 441.929 2031.86 428.345 2022 411.079C2016.02 400.606 2011.89 389.307 2009.53 377.246H2270.58C2275.86 337.89 2272.62 302.025 2260.85 269.588V269.652ZM2012.14 310.341C2013.86 303.549 2016.08 297.201 2018.76 291.234C2026.45 274.222 2037.14 261.336 2050.88 252.703C2064.62 244.07 2080.07 239.754 2097.44 239.754C2111.37 239.754 2124.03 242.737 2135.35 248.768C2146.67 254.798 2155.64 263.177 2162.38 273.968C2169.13 284.759 2172.75 296.884 2173.2 310.341H2012.14Z" fill="#462A3F"/>
</g>
<defs>
<clipPath id="clip0_1_2">
<rect width="2273" height="548" fill="white"/>
</clipPath>
</defs>
</svg>
