<?xml version="1.0" encoding="UTF-8"?>
<svg id="Vrstva_1" xmlns="http://www.w3.org/2000/svg" xmlns:xlink="http://www.w3.org/1999/xlink" version="1.1" viewBox="0 0 1329 1334">
  <!-- Generator: Adobe Illustrator 29.6.1, SVG Export Plug-In . SVG Version: 2.1.1 Build 9)  -->
  <defs>
    <style>
      .st0 {
        fill: none;
      }

      .st1 {
        fill: #462a3f;
      }

      .st2 {
        clip-path: url(#clippath);
      }
    </style>
    <clipPath id="clippath">
      <rect class="st0" y="0" width="1329" height="1334"/>
    </clipPath>
  </defs>
  <g class="st2">
    <g>
      <path class="st1" d="M499.2,1334L118.6,953.5C42.1,877,0,775.3,0,667.1s42.1-209.9,118.6-286.4L499.5,0l166.7,166.6-380.8,380.7c-32,32-49.6,74.5-49.6,119.7s17.6,87.8,49.6,119.7l380.6,380.5-166.7,166.6h0v.2h0Z"/>
      <path class="st1" d="M916.3,1079.4c-110.5,0-214.4-43-292.5-121.2l-123.9-123.9,166.7-166.6,123.9,123.9c33.6,33.6,78.3,52.1,125.9,52.1s92.2-18.5,125.9-52.1c68.7-68.7,68.1-181-1.2-250.4l-374.7-374.6L833,0l374.7,374.6c161.3,161.3,161.9,423.1,1.2,583.7-78.1,78.1-182,121.2-292.5,121.2h0Z"/>
    </g>
  </g>
</svg>