<svg width="1329" height="1334" viewBox="0 0 1329 1334" fill="none" xmlns="http://www.w3.org/2000/svg">
<g clip-path="url(#clip0_46_22)">
<path d="M499.166 1334L118.613 953.522C42.1057 877.03 0 775.294 0 667.076C0 558.858 42.1057 457.199 118.613 380.707L499.472 0L666.14 166.636L285.358 547.343C253.397 579.297 235.777 621.852 235.777 667.076C235.777 712.301 253.397 754.855 285.358 786.81L665.911 1167.29L499.243 1333.92L499.166 1334Z" fill="black"/>
<path d="M916.333 1079.43C805.806 1079.43 701.915 1036.42 623.805 958.25L499.929 834.398L666.598 667.763L790.474 791.614C824.113 825.247 868.812 843.702 916.333 843.702C963.855 843.702 1008.55 825.17 1042.19 791.614C1110.92 722.901 1110.31 610.565 1040.97 541.242L666.293 166.636L832.961 0L1207.64 374.606C1368.97 535.903 1369.5 797.716 1208.86 958.326C1130.75 1036.42 1026.86 1079.51 916.333 1079.51V1079.43Z" fill="black"/>
</g>
<defs>
<clipPath id="clip0_46_22">
<rect width="1329" height="1334" fill="white"/>
</clipPath>
</defs>
</svg>
